<svg xmlns:xlink="http://www.w3.org/1999/xlink" xmlns="http://www.w3.org/2000/svg" version="1.1" viewBox="0 0 100 100" height="100px" width="100px">
    <title>编组 84</title>
    <defs>
        <linearGradient id="linearGradient-1" y2="100%" x2="72.2222222%" y1="0%" x1="27.7777778%">
            <stop offset="0%" stop-color="#33AFFF"></stop>
            <stop offset="100%" stop-color="#405CFF"></stop>
        </linearGradient>
        <linearGradient id="linearGradient-2" y2="100%" x2="57.03125%" y1="0%" x1="42.96875%">
            <stop offset="0%" stop-color="#33AFFF"></stop>
            <stop offset="100%" stop-color="#405CFF"></stop>
        </linearGradient>
        <linearGradient id="linearGradient-3" y2="100%" x2="100%" y1="0%" x1="0%">
            <stop offset="0%" stop-color="#33AFFF"></stop>
            <stop offset="100%" stop-color="#405CFF"></stop>
        </linearGradient>
        <linearGradient id="linearGradient-4" y2="81.684856%" x2="128.242342%" y1="27.3671275%" x1="-5.18718658%">
            <stop offset="0%" stop-color="#33AFFF"></stop>
            <stop offset="100%" stop-color="#405CFF"></stop>
        </linearGradient>
        <linearGradient id="linearGradient-5" y2="263.535276%" x2="252.471578%" y1="-42.1481261%" x1="-38.0582981%">
            <stop offset="0%" stop-color="#33AFFF"></stop>
            <stop offset="100%" stop-color="#405CFF"></stop>
        </linearGradient>
        <linearGradient id="linearGradient-6" y2="129.432174%" x2="128.242342%" y1="-6.73935396%" x1="-5.18718658%">
            <stop offset="0%" stop-color="#33AFFF"></stop>
            <stop offset="100%" stop-color="#405CFF"></stop>
        </linearGradient>
    </defs>
    <g fill-rule="evenodd" fill="none" stroke-width="1" stroke="none" id="页面-1">
        <g transform="translate(-1320.000000, -1761.000000)" id="消费版">
            <g transform="translate(1320.000000, 1761.000000)" id="编组-37">
                <rect height="98.8505747" width="98.8505747" y="0.574712644" x="0.574712644" opacity="0" stroke-width="1.14942529" stroke="#979797" id="矩形备份-41"></rect>
                <g transform="translate(3.000000, 13.000000)" id="编组-18">
                    <g transform="translate(36.000000, 36.000000)" id="编组-17">
                        <rect height="18" width="12" y="14" x="0" fill="url(#linearGradient-1)" id="矩形备份-42"></rect>
                        <rect height="24" width="12" y="8" x="16" fill="#C0D5FB" id="矩形备份-43"></rect>
                        <rect height="32" width="12" y="0" x="32" fill="url(#linearGradient-2)" id="矩形备份-44"></rect>
                    </g>
                    <rect height="59" width="80" y="14" x="6" stroke-width="2" stroke="#333333" id="矩形"></rect>
                    <g transform="translate(64.000000, 0.000000)" id="编组-36">
                        <path fill="url(#linearGradient-3)" id="路径" d="M15,30 C19.1421,30 22.8921,28.32105 25.606575,25.606575 C28.32105,22.8921 30,19.1421 30,15 C30,10.8579 28.32105,7.1079 25.606575,4.393395 C22.8921,1.678935 19.1421,0 15,0 C10.8579,0 7.1079,1.678935 4.393395,4.393395 C1.678935,7.1079 0,10.8579 0,15 C0,19.1421 1.678935,22.8921 4.393395,25.606575 C7.1079,28.32105 10.8579,30 15,30 Z"></path>
                        <g fill-rule="nonzero" fill="#FFFFFF" transform="translate(9.000000, 7.000000)" id="jiage-copy">
                            <path id="路径" d="M12,0 L9.78832329,0 L7.30158818,4.47544905 C6.63842,5.68832554 6.23277852,6.4944926 6.08466375,6.89407212 L6.04234227,6.89407212 C5.60484011,5.92249526 4.37036318,3.62455248 2.33862034,0 L0,0 L4.34921284,7.29716581 L0.783082501,7.29716581 L0.783082501,8.90954057 L4.96296784,8.90954057 L4.96296784,11.1317763 L0.783082501,11.1317763 L0.783082501,12.7648502 L4.96296784,12.7648502 L4.96296784,16 L7.03699057,16 L7.03699057,12.7648502 L11.0687195,12.7648502 L11.0687195,11.1317763 L7.03701136,11.1317763 L7.03701136,8.90954057 L11.0687403,8.90954057 L11.0687403,7.29716581 L7.60846568,7.29716581 L12,0 L12,0 Z"></path>
                        </g>
                    </g>
                    <rect height="24" width="38" y="18" x="0" fill="url(#linearGradient-4)" id="矩形"></rect>
                    <g fill="url(#linearGradient-5)" transform="translate(10.000000, 65.000000)" id="编组-8">
                        <rect height="3" width="2.76923077" y="0" x="9.23076923" id="矩形"></rect>
                        <rect height="3" width="2.76923077" y="0" x="4.61538462" id="矩形备份-50"></rect>
                        <rect height="3" width="2.76923077" y="0" x="0" id="矩形备份-51"></rect>
                    </g>
                    <g fill-rule="nonzero" fill="#FFFFFF" transform="translate(19.000000, 30.000000) rotate(-270.000000) translate(-19.000000, -30.000000) translate(11.000000, 24.000000)" id="a-jiantou">
                        <polygon points="16 3.6 5.64654546 3.6 5.64654546 -4.54747351e-13 0 6 5.64654546 12 5.64654546 8.4 16 8.4" id="路径"></polygon>
                    </g>
                    <rect height="8" width="8" y="0" x="5" fill="url(#linearGradient-6)" id="矩形"></rect>
                </g>
            </g>
        </g>
    </g>
</svg>